<svg width="24" height="24" viewBox="0 0 24 24" xmlns="http://www.w3.org/2000/svg">
    <path fill-rule="evenodd" clip-rule="evenodd" d="M1 12.0602C1 16.5145 2.76857 20.1231 4.95182 20.1231H19.0482C21.2314 20.1231 23 16.5145 23 12.0602C23 7.60854 21.2314 4 19.0482 4H4.95182C2.76857 4 1 7.60854 1 12.0602ZM14.3236 12.0679C14.3236 11.0271 13.4805 10.1785 12.4342 10.1785H11.9398V13.9601H12.4342C13.4805 13.9601 14.3236 13.1115 14.3236 12.0679ZM16.1773 12.0679C16.1773 14.0232 14.5845 15.6133 12.6264 15.6133V15.616H10.4486V8.51704H12.6209H12.6429C14.6009 8.51704 16.1773 10.1044 16.1773 12.0679ZM8.16052 15.6175H9.71488V8.51572H7.7733L2.67631 15.6175H4.95842L5.5571 14.6782H8.16052V15.6175ZM6.53333 13.1981H8.17008V10.6551L6.53333 13.1981ZM16.5377 8.50993H16.7574C17.6417 9.53977 18.136 10.858 18.136 12.2283C18.136 13.4449 17.7488 14.6258 17.043 15.5897H16.8151H16.4361H16.2109C16.9936 14.6505 17.4385 13.4669 17.4385 12.2283C17.4385 10.8332 16.8755 9.49034 15.8896 8.50993H16.1093H16.5377ZM18.5478 8.50991H18.3281H17.8997H17.68C18.6659 9.49031 19.2289 10.8332 19.2289 12.2283C19.2289 13.4668 18.784 14.6505 18.0013 15.5897H18.2265H18.6055H18.8334C19.5392 14.6257 19.9264 13.4449 19.9264 12.2283C19.9264 10.8579 19.4321 9.53974 18.5478 8.50991ZM20.1185 8.50991H20.3382C21.2225 9.53974 21.7168 10.8579 21.7168 12.2283C21.7168 13.4449 21.3296 14.6257 20.6238 15.5897H20.3959H20.0169H19.7917C20.5744 14.6505 21.0193 13.4668 21.0193 12.2283C21.0193 10.8332 20.4563 9.49031 19.4704 8.50991H19.6901H20.1185Z" fill="currentColor"/>
</svg>